<svg xmlns="http://www.w3.org/2000/svg">
<g>
<path d="M 200.0 50.0 A 150.0 150.0 0 0 0 3.647450843757902 -92.65847744427305 L 50.0 50.0 Z"
	fill="green" stroke="black" transform="rotate(0.0)"/>
<path d="M 3.647450843757902 -92.65847744427305 A 150.0 150.0 0 0 0 -71.35254915624212 138.16778784387094 L 50.0 50.0 Z"
	fill="black" stroke="black" transform="rotate(0.0)"/>
<path d="M -71.35254915624212 138.16778784387094 A 150.0 150.0 0 0 0 3.6474508437578663 192.65847744427302 L 50.0 50.0 Z"
	fill="yellow" stroke="black" transform="rotate(0.0)"/>
<path d="M 3.6474508437578663 192.65847744427302 A 150.0 150.0 0 0 0 171.3525491562421 138.167787843871 L 50.0 50.0 Z"
	fill="white" stroke="black" transform="rotate(0.0)"/>
<path d="M 171.3525491562421 138.167787843871 A 150.0 150.0 0 0 0 200.0 50.000000000000036 L 50.0 50.0 Z"
	fill="red" stroke="black" transform="rotate(0.0)"/>
</g></svg>