<svg xmlns="http://www.w3.org/2000/svg">
<g>
<path d="M 500.0 400.0 A 100.0 100.0 0 0 0 466.0243015231202 405.9486740497076 L 500.0 500.0 Z"
	fill="Blue " stroke="black" transform="rotate(0.0)"/>
<path d="M 466.0243015231202 405.9486740497076 A 100.0 100.0 0 0 0 403.08802972699795 524.6590757694762 L 500.0 500.0 Z"
	fill=" Green " stroke="black" transform="rotate(0.0)"/>
<path d="M 403.08802972699795 524.6590757694762 A 100.0 100.0 0 1 0 583.9652553298511 445.68760825195676 L 500.0 500.0 Z"
	fill=" Red " stroke="black" transform="rotate(0.0)"/>
<path d="M 583.9652553298511 445.68760825195676 A 100.0 100.0 0 0 0 506.49527107634117 400.21116568651155 L 500.0 500.0 Z"
	fill=" Yellow " stroke="black" transform="rotate(0.0)"/>
<path d="M 506.49527107634117 400.21116568651155 A 100.0 100.0 0 0 0 500.0000000000002 400.0 L 500.0 500.0 Z"
	fill=" Maroon " stroke="black" transform="rotate(0.0)"/>
</g>
<g>
<path d="M 500.0 400.0 A 100.0 100.0 0 0 0 403.6271899647158 526.688602172145 L 500.0 500.0 Z"
	fill="Blue " stroke="black" transform="rotate(0.0)"/>
<path d="M 403.6271899647158 526.688602172145 A 100.0 100.0 0 0 0 551.4411117448681 585.7543702819396 L 500.0 500.0 Z"
	fill=" Green " stroke="black" transform="rotate(0.0)"/>
<path d="M 551.4411117448681 585.7543702819396 A 100.0 100.0 0 0 0 568.9149827022516 427.5381123683051 L 500.0 500.0 Z"
	fill=" Red " stroke="black" transform="rotate(0.0)"/>
<path d="M 568.9149827022513 427.538112368305 A 100.0 100.0 0 0 0 506.07142090203945 400.1844809249069 L 500.0 500.0 Z"
	fill=" Yellow " stroke="black" transform="rotate(0.0)"/>
<path d="M 506.07142090203945 400.1844809249069 A 100.0 100.0 0 0 0 500.00000000000006 400.0 L 500.0 500.0 Z"
	fill=" Maroon " stroke="black" transform="rotate(0.0)"/>
</g>
<g>
<path d="M 500.0 400.0 A 100.0 100.0 0 0 0 457.4750693170943 409.4923745178669 L 500.0 500.0 Z"
	fill="Blue " stroke="black" transform="rotate(0.0)"/>
<path d="M 457.4750693170943 409.4923745178669 A 100.0 100.0 0 0 0 401.3620583253924 516.44860061515 L 500.0 500.0 Z"
	fill=" Green " stroke="black" transform="rotate(0.0)"/>
<path d="M 401.3620583253924 516.44860061515 A 100.0 100.0 0 1 0 573.3931947407834 432.07769905442365 L 500.0 500.0 Z"
	fill=" Red " stroke="black" transform="rotate(0.0)"/>
<path d="M 573.3931947407834 432.07769905442365 A 100.0 100.0 0 0 0 507.10546879667066 400.25275786679845 L 500.0 500.0 Z"
	fill=" Yellow " stroke="black" transform="rotate(0.0)"/>
<path d="M 507.10546879667066 400.25275786679845 A 100.0 100.0 0 0 0 500.00000000000006 400.0 L 500.0 500.0 Z"
	fill=" Maroon " stroke="black" transform="rotate(0.0)"/>
</g>

<text x="575.0" y="391.0" font-size="20" text-anchor="middle" fill="black" stroke="black" transform="rotate(0)">test</text>
<rect x="528.0" y="634.0" height="7.0" width="20.0"
	fill="Blue " stroke="black" transform="rotate(0)"/>
<text x="558.0" y="631.0" font-size="10" text-anchor="middle" fill="black" stroke="black" transform="rotate(0)">Afrique</text>
<rect x="603.0" y="634.0" height="7.0" width="20.0"
	fill=" Green " stroke="black" transform="rotate(0)"/>
<text x="633.0" y="631.0" font-size="10" text-anchor="middle" fill="black" stroke="black" transform="rotate(0)">Amerique</text>
<rect x="690.0" y="634.0" height="7.0" width="20.0"
	fill=" Red " stroke="black" transform="rotate(0)"/>
<text x="720.0" y="631.0" font-size="10" text-anchor="middle" fill="black" stroke="black" transform="rotate(0)">Asie</text>
<rect x="750.0" y="634.0" height="7.0" width="20.0"
	fill=" Yellow " stroke="black" transform="rotate(0)"/>
<text x="780.0" y="631.0" font-size="10" text-anchor="middle" fill="black" stroke="black" transform="rotate(0)">Europe</text>
<rect x="825.0" y="634.0" height="7.0" width="20.0"
	fill=" Maroon " stroke="black" transform="rotate(0)"/>
<text x="855.0" y="631.0" font-size="10" text-anchor="middle" fill="black" stroke="black" transform="rotate(0)">Oceanie</text>

</svg>