<svg xmlns="http://www.w3.org/2000/svg">
<rect x="25.0" y="210.0" height="16.0" width="10.0"
	fill="Blue " stroke="black" transform="rotate(0)"/>
<rect x="45.0" y="158.0" height="68.0" width="10.0"
	fill=" Green " stroke="black" transform="rotate(0)"/>
<rect x="65.0" y="66.0" height="160.0" width="10.0"
	fill=" Red " stroke="black" transform="rotate(0)"/>
<rect x="85.0" y="183.0" height="43.0" width="10.0"
	fill=" Yellow " stroke="black" transform="rotate(0)"/>
<rect x="105.0" y="223.0" height="3.0" width="10.0"
	fill=" Maroon " stroke="black" transform="rotate(0)"/>

<rect x="145.0" y="207.0" height="19.0" width="10.0"
	fill="Blue " stroke="black" transform="rotate(0)"/>
<rect x="165.0" y="160.0" height="66.0" width="10.0"
	fill=" Green " stroke="black" transform="rotate(0)"/>
<rect x="185.0" y="51.0" height="175.0" width="10.0"
	fill=" Red " stroke="black" transform="rotate(0)"/>
<rect x="205.0" y="188.0" height="38.0" width="10.0"
	fill=" Yellow " stroke="black" transform="rotate(0)"/>
<rect x="225.0" y="222.7" height="3.3000000000000003" width="10.0"
	fill=" Maroon " stroke="black" transform="rotate(0)"/>

<rect x="265.0" y="205.0" height="21.0" width="10.0"
	fill="Blue " stroke="black" transform="rotate(0)"/>
<rect x="285.0" y="164.0" height="62.0" width="10.0"
	fill=" Green " stroke="black" transform="rotate(0)"/>
<rect x="305.0" y="48.0" height="178.0" width="10.0"
	fill=" Red " stroke="black" transform="rotate(0)"/>
<rect x="325.0" y="190.0" height="36.0" width="10.0"
	fill=" Yellow " stroke="black" transform="rotate(0)"/>
<rect x="345.0" y="222.6" height="3.4" width="10.0"
	fill=" Maroon " stroke="black" transform="rotate(0)"/>


<text x="185.0" y="24.0" font-size="20" text-anchor="middle" fill="black" stroke="black" transform="rotate(0)">test</text>
<rect x="148.0" y="244.5" height="7.0" width="20.0"
	fill="Blue " stroke="black" transform="rotate(0)"/>
<text x="168.0" y="241.5" font-size="10" text-anchor="middle" fill="black" stroke="black" transform="rotate(0)">Afrique</text>
<rect x="223.0" y="244.5" height="7.0" width="20.0"
	fill=" Green " stroke="black" transform="rotate(0)"/>
<text x="243.0" y="241.5" font-size="10" text-anchor="middle" fill="black" stroke="black" transform="rotate(0)">Amerique</text>
<rect x="310.0" y="244.5" height="7.0" width="20.0"
	fill=" Red " stroke="black" transform="rotate(0)"/>
<text x="330.0" y="241.5" font-size="10" text-anchor="middle" fill="black" stroke="black" transform="rotate(0)">Asie</text>
<rect x="370.0" y="244.5" height="7.0" width="20.0"
	fill=" Yellow " stroke="black" transform="rotate(0)"/>
<text x="390.0" y="241.5" font-size="10" text-anchor="middle" fill="black" stroke="black" transform="rotate(0)">Europe</text>
<rect x="445.0" y="244.5" height="7.0" width="20.0"
	fill=" Maroon " stroke="black" transform="rotate(0)"/>
<text x="465.0" y="241.5" font-size="10" text-anchor="middle" fill="black" stroke="black" transform="rotate(0)">Oceanie</text>

</svg>