<svg xmlns="http://www.w3.org/2000/svg">
<rect x="50.0" y="210.0" height="16.0" width="10.0"
	fill=" Blue " stroke="black" transform="rotate(0)"/>
<rect x="70.0" y="158.0" height="68.0" width="10.0"
	fill=" Green " stroke="black" transform="rotate(0)"/>
<rect x="90.0" y="66.0" height="160.0" width="10.0"
	fill=" Red " stroke="black" transform="rotate(0)"/>
<rect x="110.0" y="183.0" height="43.0" width="10.0"
	fill=" Yellow " stroke="black" transform="rotate(0)"/>
<rect x="130.0" y="223.0" height="3.0" width="10.0"
	fill=" Maroon " stroke="black" transform="rotate(0)"/>

<rect x="170.0" y="207.0" height="19.0" width="10.0"
	fill=" Blue " stroke="black" transform="rotate(0)"/>
<rect x="190.0" y="160.0" height="66.0" width="10.0"
	fill=" Green " stroke="black" transform="rotate(0)"/>
<rect x="210.0" y="51.0" height="175.0" width="10.0"
	fill=" Red " stroke="black" transform="rotate(0)"/>
<rect x="230.0" y="188.0" height="38.0" width="10.0"
	fill=" Yellow " stroke="black" transform="rotate(0)"/>
<rect x="250.0" y="222.7" height="3.3000000000000003" width="10.0"
	fill=" Maroon " stroke="black" transform="rotate(0)"/>

<rect x="290.0" y="205.0" height="21.0" width="10.0"
	fill=" Blue " stroke="black" transform="rotate(0)"/>
<rect x="310.0" y="164.0" height="62.0" width="10.0"
	fill=" Green " stroke="black" transform="rotate(0)"/>
<rect x="330.0" y="48.0" height="178.0" width="10.0"
	fill=" Red " stroke="black" transform="rotate(0)"/>
<rect x="350.0" y="190.0" height="36.0" width="10.0"
	fill=" Yellow " stroke="black" transform="rotate(0)"/>
<rect x="370.0" y="222.6" height="3.4" width="10.0"
	fill=" Maroon " stroke="black" transform="rotate(0)"/>


<text x="215.0" y="24.0" font-size="20" text-anchor="middle" fill="black" stroke="black" transform="rotate(0)"> Emissions de CO2 ( en Mt ) </text>
<rect x="162.0" y="245.0" height="7.0" width="20.0"
	fill=" Blue " stroke="black" transform="rotate(0)"/>
<text x="192.0" y="242.0" font-size="10" text-anchor="middle" fill="black" stroke="black" transform="rotate(0)"> Afrique </text>
<rect x="243.0" y="245.0" height="7.0" width="20.0"
	fill=" Green " stroke="black" transform="rotate(0)"/>
<text x="273.0" y="242.0" font-size="10" text-anchor="middle" fill="black" stroke="black" transform="rotate(0)"> Amerique </text>
<rect x="336.0" y="245.0" height="7.0" width="20.0"
	fill=" Red " stroke="black" transform="rotate(0)"/>
<text x="366.0" y="242.0" font-size="10" text-anchor="middle" fill="black" stroke="black" transform="rotate(0)"> Asie </text>
<rect x="402.0" y="245.0" height="7.0" width="20.0"
	fill=" Yellow " stroke="black" transform="rotate(0)"/>
<text x="432.0" y="242.0" font-size="10" text-anchor="middle" fill="black" stroke="black" transform="rotate(0)"> Europe </text>
<rect x="483.0" y="245.0" height="7.0" width="20.0"
	fill=" Maroon " stroke="black" transform="rotate(0)"/>
<text x="513.0" y="242.0" font-size="10" text-anchor="middle" fill="black" stroke="black" transform="rotate(0)"> Oceanie </text>

<polyline points="50.0 226.0 50.0 226.0 380.0 226.0 " fill="white" stroke="black" transform="rotate(0)"/>
<polyline points="50.0 48.0 50.0 48.0 50.0 226.0 " fill="white" stroke="black" transform="rotate(0)"/>
<polyline points="45.0 48.0 45.0 48.0 55.0 48.0 " fill="white" stroke="black" transform="rotate(0)"/>
<text x="30.0" y="48.0" font-size="10" text-anchor="middle" fill="black" stroke="black" transform="rotate(0)">17800</text>
<polyline points="45.0 83.6 45.0 83.6 55.0 83.6 " fill="white" stroke="black" transform="rotate(0)"/>
<text x="30.0" y="83.6" font-size="10" text-anchor="middle" fill="black" stroke="black" transform="rotate(0)">14240</text>
<polyline points="45.0 119.2 45.0 119.2 55.0 119.2 " fill="white" stroke="black" transform="rotate(0)"/>
<text x="30.0" y="119.2" font-size="10" text-anchor="middle" fill="black" stroke="black" transform="rotate(0)">10680</text>
<polyline points="45.0 154.8 45.0 154.8 55.0 154.8 " fill="white" stroke="black" transform="rotate(0)"/>
<text x="33.0" y="154.8" font-size="10" text-anchor="middle" fill="black" stroke="black" transform="rotate(0)">7120</text>
<polyline points="45.0 190.4 45.0 190.4 55.0 190.4 " fill="white" stroke="black" transform="rotate(0)"/>
<text x="33.0" y="190.4" font-size="10" text-anchor="middle" fill="black" stroke="black" transform="rotate(0)">3560</text>
<polyline points="45.0 226.0 45.0 226.0 55.0 226.0 " fill="white" stroke="black" transform="rotate(0)"/>
<text x="42.0" y="226.0" font-size="10" text-anchor="middle" fill="black" stroke="black" transform="rotate(0)">0</text>
</svg>