<svg xmlns="http://www.w3.org/2000/svg">
<g>
<path d="M 500.0 200.0 A 300.0 300.0 0 0 0 398.0729045693605 217.8460221491228 L 500.0 500.0 Z"
	fill="Blue " stroke="black" transform="rotate(0.0)"/>
<path d="M 398.0729045693605 217.8460221491228 A 300.0 300.0 0 0 0 209.26408918099384 573.9772273084286 L 500.0 500.0 Z"
	fill=" Green " stroke="black" transform="rotate(0.0)"/>
<path d="M 209.26408918099384 573.9772273084286 A 300.0 300.0 0 1 0 751.8957659895532 337.06282475587034 L 500.0 500.0 Z"
	fill=" Red " stroke="black" transform="rotate(0.0)"/>
<path d="M 751.8957659895532 337.06282475587034 A 300.0 300.0 0 0 0 519.4858132290236 200.6334970595347 L 500.0 500.0 Z"
	fill=" Yellow " stroke="black" transform="rotate(0.0)"/>
<path d="M 519.4858132290236 200.6334970595347 A 300.0 300.0 0 0 0 500.0000000000006 200.0 L 500.0 500.0 Z"
	fill=" Maroon " stroke="black" transform="rotate(0.0)"/>
</g>
<g>
<path d="M 500.0 200.0 A 300.0 300.0 0 0 0 210.8815698941474 580.065806516435 L 500.0 500.0 Z"
	fill="Blue " stroke="black" transform="rotate(0.0)"/>
<path d="M 210.8815698941474 580.065806516435 A 300.0 300.0 0 0 0 654.3233352346041 757.2631108458187 L 500.0 500.0 Z"
	fill=" Green " stroke="black" transform="rotate(0.0)"/>
<path d="M 654.3233352346041 757.2631108458187 A 300.0 300.0 0 0 0 706.7449481067546 282.6143371049154 L 500.0 500.0 Z"
	fill=" Red " stroke="black" transform="rotate(0.0)"/>
<path d="M 706.7449481067542 282.61433710491497 A 300.0 300.0 0 0 0 518.2142627061183 200.55344277472062 L 500.0 500.0 Z"
	fill=" Yellow " stroke="black" transform="rotate(0.0)"/>
<path d="M 518.2142627061183 200.55344277472062 A 300.0 300.0 0 0 0 500.0000000000001 200.0 L 500.0 500.0 Z"
	fill=" Maroon " stroke="black" transform="rotate(0.0)"/>
</g>
<g>
<path d="M 500.0 200.0 A 300.0 300.0 0 0 0 372.42520795128297 228.47712355360073 L 500.0 500.0 Z"
	fill="Blue " stroke="black" transform="rotate(0.0)"/>
<path d="M 372.42520795128297 228.47712355360073 A 300.0 300.0 0 0 0 204.0861749761773 549.3458018454501 L 500.0 500.0 Z"
	fill=" Green " stroke="black" transform="rotate(0.0)"/>
<path d="M 204.0861749761773 549.3458018454501 A 300.0 300.0 0 1 0 720.1795842223503 296.23309716327094 L 500.0 500.0 Z"
	fill=" Red " stroke="black" transform="rotate(0.0)"/>
<path d="M 720.1795842223503 296.23309716327094 A 300.0 300.0 0 0 0 521.316406390012 200.75827360039534 L 500.0 500.0 Z"
	fill=" Yellow " stroke="black" transform="rotate(0.0)"/>
<path d="M 521.316406390012 200.75827360039534 A 300.0 300.0 0 0 0 500.0000000000001 200.0 L 500.0 500.0 Z"
	fill=" Maroon " stroke="black" transform="rotate(0.0)"/>
</g>

<text x="575.0" y="191.0" font-size="20" text-anchor="middle" fill="black" stroke="black" transform="rotate(0)">test</text>
<rect x="528.0" y="834.0" height="7.0" width="20.0"
	fill="Blue " stroke="black" transform="rotate(0)"/>
<text x="558.0" y="831.0" font-size="10" text-anchor="middle" fill="black" stroke="black" transform="rotate(0)">Afrique</text>
<rect x="603.0" y="834.0" height="7.0" width="20.0"
	fill=" Green " stroke="black" transform="rotate(0)"/>
<text x="633.0" y="831.0" font-size="10" text-anchor="middle" fill="black" stroke="black" transform="rotate(0)">Amerique</text>
<rect x="690.0" y="834.0" height="7.0" width="20.0"
	fill=" Red " stroke="black" transform="rotate(0)"/>
<text x="720.0" y="831.0" font-size="10" text-anchor="middle" fill="black" stroke="black" transform="rotate(0)">Asie</text>
<rect x="750.0" y="834.0" height="7.0" width="20.0"
	fill=" Yellow " stroke="black" transform="rotate(0)"/>
<text x="780.0" y="831.0" font-size="10" text-anchor="middle" fill="black" stroke="black" transform="rotate(0)">Europe</text>
<rect x="825.0" y="834.0" height="7.0" width="20.0"
	fill=" Maroon " stroke="black" transform="rotate(0)"/>
<text x="855.0" y="831.0" font-size="10" text-anchor="middle" fill="black" stroke="black" transform="rotate(0)">Oceanie</text>

</svg>