<svg xmlns="http://www.w3.org/2000/svg">
<rect x="20.0" y="210.0" height="16.0" width="10.0"
	fill="Blue " stroke="black" transform="rotate(0)"/>
<rect x="40.0" y="158.0" height="68.0" width="10.0"
	fill=" Green " stroke="black" transform="rotate(0)"/>
<rect x="60.0" y="66.0" height="160.0" width="10.0"
	fill=" Red " stroke="black" transform="rotate(0)"/>
<rect x="80.0" y="183.0" height="43.0" width="10.0"
	fill=" Yellow " stroke="black" transform="rotate(0)"/>
<rect x="100.0" y="223.0" height="3.0" width="10.0"
	fill=" Maroon " stroke="black" transform="rotate(0)"/>

<rect x="140.0" y="207.0" height="19.0" width="10.0"
	fill="Blue " stroke="black" transform="rotate(0)"/>
<rect x="160.0" y="160.0" height="66.0" width="10.0"
	fill=" Green " stroke="black" transform="rotate(0)"/>
<rect x="180.0" y="51.0" height="175.0" width="10.0"
	fill=" Red " stroke="black" transform="rotate(0)"/>
<rect x="200.0" y="188.0" height="38.0" width="10.0"
	fill=" Yellow " stroke="black" transform="rotate(0)"/>
<rect x="220.0" y="222.7" height="3.3000000000000003" width="10.0"
	fill=" Maroon " stroke="black" transform="rotate(0)"/>

<rect x="260.0" y="205.0" height="21.0" width="10.0"
	fill="Blue " stroke="black" transform="rotate(0)"/>
<rect x="280.0" y="164.0" height="62.0" width="10.0"
	fill=" Green " stroke="black" transform="rotate(0)"/>
<rect x="300.0" y="48.0" height="178.0" width="10.0"
	fill=" Red " stroke="black" transform="rotate(0)"/>
<rect x="320.0" y="190.0" height="36.0" width="10.0"
	fill=" Yellow " stroke="black" transform="rotate(0)"/>
<rect x="340.0" y="222.6" height="3.4" width="10.0"
	fill=" Maroon " stroke="black" transform="rotate(0)"/>


<text x="180.0" y="24.0" font-size="20" text-anchor="middle" fill="black" stroke="black" transform="rotate(0)">test</text>
<rect x="133.0" y="244.5" height="7.0" width="20.0"
	fill="Blue " stroke="black" transform="rotate(0)"/>
<text x="163.0" y="241.5" font-size="10" text-anchor="middle" fill="black" stroke="black" transform="rotate(0)">Afrique</text>
<rect x="208.0" y="244.5" height="7.0" width="20.0"
	fill=" Green " stroke="black" transform="rotate(0)"/>
<text x="238.0" y="241.5" font-size="10" text-anchor="middle" fill="black" stroke="black" transform="rotate(0)">Amerique</text>
<rect x="295.0" y="244.5" height="7.0" width="20.0"
	fill=" Red " stroke="black" transform="rotate(0)"/>
<text x="325.0" y="241.5" font-size="10" text-anchor="middle" fill="black" stroke="black" transform="rotate(0)">Asie</text>
<rect x="355.0" y="244.5" height="7.0" width="20.0"
	fill=" Yellow " stroke="black" transform="rotate(0)"/>
<text x="385.0" y="241.5" font-size="10" text-anchor="middle" fill="black" stroke="black" transform="rotate(0)">Europe</text>
<rect x="430.0" y="244.5" height="7.0" width="20.0"
	fill=" Maroon " stroke="black" transform="rotate(0)"/>
<text x="460.0" y="241.5" font-size="10" text-anchor="middle" fill="black" stroke="black" transform="rotate(0)">Oceanie</text>

</svg>