<svg xmlns="http://www.w3.org/2000/svg">
<text x="90.0" y="310.04022899761634" font-size="10" text-anchor="middle" fill="black" stroke="black" transform="rotate(0)">GPLc</text>
<text x="220.0" y="322.52480887791353" font-size="10" text-anchor="middle" fill="black" stroke="black" transform="rotate(0)">E85</text>
<text x="350.0" y="220.0" font-size="10" text-anchor="middle" fill="black" stroke="black" transform="rotate(0)">E10</text>
<rect x="50.0" y="322.6719373539165" height="107.32806264608351" width="20.0"
	fill="#4b3e97" stroke="black" transform="rotate(0)"/>
<rect x="80.0" y="320.04022899761634" height="109.95977100238365" width="20.0"
	fill="#db9668" stroke="black" transform="rotate(0)"/>
<rect x="110.0" y="325.2043503101804" height="104.79564968981957" width="20.0"
	fill="#da480c" stroke="black" transform="rotate(0)"/>

<rect x="180.0" y="333.595810014731" height="96.404189985269" width="20.0"
	fill="#4b3e97" stroke="black" transform="rotate(0)"/>
<rect x="210.0" y="332.52480887791353" height="97.47519112208647" width="20.0"
	fill="#db9668" stroke="black" transform="rotate(0)"/>
<rect x="240.0" y="337.09894872427185" height="92.90105127572814" width="20.0"
	fill="#da480c" stroke="black" transform="rotate(0)"/>

<rect x="310.0" y="232.05059408595136" height="197.94940591404864" width="20.0"
	fill="#4b3e97" stroke="black" transform="rotate(0)"/>
<rect x="340.0" y="230.0" height="200.0" width="20.0"
	fill="#db9668" stroke="black" transform="rotate(0)"/>
<rect x="370.0" y="233.86283879939708" height="196.13716120060292" width="20.0"
	fill="#da480c" stroke="black" transform="rotate(0)"/>


<text x="220.0" y="206.0" font-size="20" text-anchor="middle" fill="black" stroke="black" transform="rotate(0)">Prix moyen</text>
<rect x="143.0" y="449.0" height="7.0" width="20.0"
	fill="#4b3e97" stroke="black" transform="rotate(0)"/>
<text x="173.0" y="446.0" font-size="10" text-anchor="middle" fill="black" stroke="black" transform="rotate(0)">Hauts-de-France</text>
<rect x="260.0" y="449.0" height="7.0" width="20.0"
	fill="#db9668" stroke="black" transform="rotate(0)"/>
<text x="290.0" y="446.0" font-size="10" text-anchor="middle" fill="black" stroke="black" transform="rotate(0)">Pays de la Loire</text>
<rect x="376.0" y="449.0" height="7.0" width="20.0"
	fill="#da480c" stroke="black" transform="rotate(0)"/>
<text x="406.0" y="446.0" font-size="10" text-anchor="middle" fill="black" stroke="black" transform="rotate(0)">Occitanie</text>

<polyline points="50.0 430.0 50.0 430.0 390.0 430.0 " fill="white" stroke="black" transform="rotate(0)"/>
<polyline points="50.0 230.0 50.0 230.0 50.0 430.0 " fill="white" stroke="black" transform="rotate(0)"/>
<polyline points="45.0 230.0 45.0 230.0 55.0 230.0 " fill="white" stroke="black" transform="rotate(0)"/>
<text x="34.5" y="230.0" font-size="10" text-anchor="middle" fill="black" stroke="black" transform="rotate(0)">1,87</text>
<polyline points="45.0 270.0 45.0 270.0 55.0 270.0 " fill="white" stroke="black" transform="rotate(0)"/>
<text x="37.5" y="270.0" font-size="10" text-anchor="middle" fill="black" stroke="black" transform="rotate(0)">1,5</text>
<polyline points="45.0 310.0 45.0 310.0 55.0 310.0 " fill="white" stroke="black" transform="rotate(0)"/>
<text x="34.5" y="310.0" font-size="10" text-anchor="middle" fill="black" stroke="black" transform="rotate(0)">1,12</text>
<polyline points="45.0 350.0 45.0 350.0 55.0 350.0 " fill="white" stroke="black" transform="rotate(0)"/>
<text x="34.5" y="350.0" font-size="10" text-anchor="middle" fill="black" stroke="black" transform="rotate(0)">0,75</text>
<polyline points="45.0 390.0 45.0 390.0 55.0 390.0 " fill="white" stroke="black" transform="rotate(0)"/>
<text x="34.5" y="390.0" font-size="10" text-anchor="middle" fill="black" stroke="black" transform="rotate(0)">0,37</text>
<polyline points="45.0 430.0 45.0 430.0 55.0 430.0 " fill="white" stroke="black" transform="rotate(0)"/>
<text x="42.0" y="430.0" font-size="10" text-anchor="middle" fill="black" stroke="black" transform="rotate(0)">0</text>

<text x="100.0" y="668.7361918604649" font-size="10" text-anchor="middle" fill="black" stroke="black" transform="rotate(0)">GPLc</text>
<text x="220.0" y="686.9411337209301" font-size="10" text-anchor="middle" fill="black" stroke="black" transform="rotate(0)">E85</text>
<text x="340.0" y="530.9999999999998" font-size="10" text-anchor="middle" fill="black" stroke="black" transform="rotate(0)">E10</text>
<rect x="50.0" y="787.6388081395348" height="53.36119186046512" width="100.0"
	fill="#4b3e97" stroke="black" transform="rotate(0)"/>
<rect x="50.0" y="731.5523255813953" height="56.08648255813954" width="100.0"
	fill="#db9668" stroke="black" transform="rotate(0)"/>
<rect x="50.0" y="678.7361918604649" height="52.81613372093024" width="100.0"
	fill="#da480c" stroke="black" transform="rotate(0)"/>

<rect x="170.0" y="792.2172965116279" height="48.7827034883721" width="100.0"
	fill="#4b3e97" stroke="black" transform="rotate(0)"/>
<rect x="170.0" y="743.2165697674418" height="49.00072674418605" width="100.0"
	fill="#db9668" stroke="black" transform="rotate(0)"/>
<rect x="170.0" y="696.9411337209301" height="46.27543604651163" width="100.0"
	fill="#da480c" stroke="black" transform="rotate(0)"/>

<rect x="290.0" y="740.9818313953488" height="100.01816860465117" width="100.0"
	fill="#4b3e97" stroke="black" transform="rotate(0)"/>
<rect x="290.0" y="639.6555232558138" height="101.32630813953489" width="100.0"
	fill="#db9668" stroke="black" transform="rotate(0)"/>
<rect x="290.0" y="540.9999999999999" height="98.65552325581396" width="100.0"
	fill="#da480c" stroke="black" transform="rotate(0)"/>


<text x="220.0" y="516.9999999999998" font-size="20" text-anchor="middle" fill="black" stroke="black" transform="rotate(0)">Prix médian</text>
<rect x="110.0" y="870.0" height="7.0" width="20.0"
	fill="#4b3e97" stroke="black" transform="rotate(0)"/>
<text x="140.0" y="867.0" font-size="15" text-anchor="middle" fill="black" stroke="black" transform="rotate(0)">Hauts-de-France</text>
<rect x="260.0" y="870.0" height="7.0" width="20.0"
	fill="#db9668" stroke="black" transform="rotate(0)"/>
<text x="290.0" y="867.0" font-size="15" text-anchor="middle" fill="black" stroke="black" transform="rotate(0)">Pays de la Loire</text>
<rect x="404.0" y="870.0" height="7.0" width="20.0"
	fill="#da480c" stroke="black" transform="rotate(0)"/>
<text x="434.0" y="867.0" font-size="15" text-anchor="middle" fill="black" stroke="black" transform="rotate(0)">Occitanie</text>

<polyline points="50.0 841.0 50.0 841.0 390.0 841.0 " fill="white" stroke="black" transform="rotate(0)"/>
<polyline points="50.0 540.9999999999998 50.0 540.9999999999998 50.0 841.0 " fill="white" stroke="black" transform="rotate(0)"/>
<polyline points="45.0 540.9999999999998 45.0 540.9999999999998 55.0 540.9999999999998 " fill="white" stroke="black" transform="rotate(0)"/>
<text x="34.5" y="540.9999999999998" font-size="10" text-anchor="middle" fill="black" stroke="black" transform="rotate(0)">1,86</text>
<polyline points="45.0 600.9999999999999 45.0 600.9999999999999 55.0 600.9999999999999 " fill="white" stroke="black" transform="rotate(0)"/>
<text x="34.5" y="600.9999999999999" font-size="10" text-anchor="middle" fill="black" stroke="black" transform="rotate(0)">1,49</text>
<polyline points="45.0 660.9999999999999 45.0 660.9999999999999 55.0 660.9999999999999 " fill="white" stroke="black" transform="rotate(0)"/>
<text x="34.5" y="660.9999999999999" font-size="10" text-anchor="middle" fill="black" stroke="black" transform="rotate(0)">1,12</text>
<polyline points="45.0 720.9999999999999 45.0 720.9999999999999 55.0 720.9999999999999 " fill="white" stroke="black" transform="rotate(0)"/>
<text x="34.5" y="720.9999999999999" font-size="10" text-anchor="middle" fill="black" stroke="black" transform="rotate(0)">0,74</text>
<polyline points="45.0 781.0 45.0 781.0 55.0 781.0 " fill="white" stroke="black" transform="rotate(0)"/>
<text x="34.5" y="781.0" font-size="10" text-anchor="middle" fill="black" stroke="black" transform="rotate(0)">0,37</text>
<polyline points="45.0 841.0 45.0 841.0 55.0 841.0 " fill="white" stroke="black" transform="rotate(0)"/>
<text x="42.0" y="841.0" font-size="10" text-anchor="middle" fill="black" stroke="black" transform="rotate(0)">0</text>

</svg>