<svg xmlns="http://www.w3.org/2000/svg">
<g>
<path d="M 256.0 156.0 A 100.0 100.0 0 0 0 222.02430152312016 161.9486740497076 L 256.0 256.0 Z"
	fill="Blue " stroke="black" transform="rotate(0.0)"/>
<path d="M 222.02430152312016 161.9486740497076 A 100.0 100.0 0 0 0 159.08802972699795 280.6590757694762 L 256.0 256.0 Z"
	fill=" Green " stroke="black" transform="rotate(0.0)"/>
<path d="M 159.08802972699795 280.6590757694762 A 100.0 100.0 0 1 0 339.96525532985106 201.68760825195676 L 256.0 256.0 Z"
	fill=" Red " stroke="black" transform="rotate(0.0)"/>
<path d="M 339.96525532985106 201.68760825195676 A 100.0 100.0 0 0 0 262.49527107634117 156.21116568651158 L 256.0 256.0 Z"
	fill=" Yellow " stroke="black" transform="rotate(0.0)"/>
<path d="M 262.49527107634117 156.21116568651158 A 100.0 100.0 0 0 0 256.0000000000002 156.0 L 256.0 256.0 Z"
	fill=" Maroon " stroke="black" transform="rotate(0.0)"/>
</g>
<g>
<path d="M 506.0 156.0 A 100.0 100.0 0 0 0 472.0243015231202 161.9486740497076 L 506.0 256.0 Z"
	fill="Blue " stroke="black" transform="rotate(0.0)"/>
<path d="M 472.0243015231202 161.9486740497076 A 100.0 100.0 0 0 0 409.08802972699795 280.6590757694762 L 506.0 256.0 Z"
	fill=" Green " stroke="black" transform="rotate(0.0)"/>
<path d="M 409.08802972699795 280.6590757694762 A 100.0 100.0 0 1 0 589.9652553298511 201.68760825195676 L 506.0 256.0 Z"
	fill=" Red " stroke="black" transform="rotate(0.0)"/>
<path d="M 589.9652553298511 201.68760825195676 A 100.0 100.0 0 0 0 512.4952710763412 156.21116568651158 L 506.0 256.0 Z"
	fill=" Yellow " stroke="black" transform="rotate(0.0)"/>
<path d="M 512.4952710763412 156.21116568651158 A 100.0 100.0 0 0 0 506.0000000000002 156.0 L 506.0 256.0 Z"
	fill=" Maroon " stroke="black" transform="rotate(0.0)"/>
</g>
<g>
<path d="M 756.0 156.0 A 100.0 100.0 0 0 0 722.0243015231201 161.9486740497076 L 756.0 256.0 Z"
	fill="Blue " stroke="black" transform="rotate(0.0)"/>
<path d="M 722.0243015231201 161.9486740497076 A 100.0 100.0 0 0 0 659.088029726998 280.6590757694762 L 756.0 256.0 Z"
	fill=" Green " stroke="black" transform="rotate(0.0)"/>
<path d="M 659.088029726998 280.6590757694762 A 100.0 100.0 0 1 0 839.9652553298511 201.68760825195676 L 756.0 256.0 Z"
	fill=" Red " stroke="black" transform="rotate(0.0)"/>
<path d="M 839.9652553298511 201.68760825195676 A 100.0 100.0 0 0 0 762.4952710763412 156.21116568651158 L 756.0 256.0 Z"
	fill=" Yellow " stroke="black" transform="rotate(0.0)"/>
<path d="M 762.4952710763412 156.21116568651158 A 100.0 100.0 0 0 0 756.0000000000002 156.0 L 756.0 256.0 Z"
	fill=" Maroon " stroke="black" transform="rotate(0.0)"/>
</g>
<g>
<path d="M 256.0 156.0 A 100.0 100.0 0 0 0 159.6271899647158 282.688602172145 L 256.0 256.0 Z"
	fill="Blue " stroke="black" transform="rotate(0.0)"/>
<path d="M 159.6271899647158 282.688602172145 A 100.0 100.0 0 0 0 307.44111174486807 341.75437028193954 L 256.0 256.0 Z"
	fill=" Green " stroke="black" transform="rotate(0.0)"/>
<path d="M 307.44111174486807 341.75437028193954 A 100.0 100.0 0 0 0 324.9149827022515 183.53811236830512 L 256.0 256.0 Z"
	fill=" Red " stroke="black" transform="rotate(0.0)"/>
<path d="M 324.9149827022514 183.538112368305 A 100.0 100.0 0 0 0 262.07142090203945 156.1844809249069 L 256.0 256.0 Z"
	fill=" Yellow " stroke="black" transform="rotate(0.0)"/>
<path d="M 262.07142090203945 156.1844809249069 A 100.0 100.0 0 0 0 256.00000000000006 156.0 L 256.0 256.0 Z"
	fill=" Maroon " stroke="black" transform="rotate(0.0)"/>
</g>
<g>
<path d="M 506.0 156.0 A 100.0 100.0 0 0 0 409.6271899647158 282.688602172145 L 506.0 256.0 Z"
	fill="Blue " stroke="black" transform="rotate(0.0)"/>
<path d="M 409.6271899647158 282.688602172145 A 100.0 100.0 0 0 0 557.4411117448681 341.75437028193954 L 506.0 256.0 Z"
	fill=" Green " stroke="black" transform="rotate(0.0)"/>
<path d="M 557.4411117448681 341.75437028193954 A 100.0 100.0 0 0 0 574.9149827022516 183.53811236830512 L 506.0 256.0 Z"
	fill=" Red " stroke="black" transform="rotate(0.0)"/>
<path d="M 574.9149827022513 183.538112368305 A 100.0 100.0 0 0 0 512.0714209020394 156.1844809249069 L 506.0 256.0 Z"
	fill=" Yellow " stroke="black" transform="rotate(0.0)"/>
<path d="M 512.0714209020394 156.1844809249069 A 100.0 100.0 0 0 0 506.00000000000006 156.0 L 506.0 256.0 Z"
	fill=" Maroon " stroke="black" transform="rotate(0.0)"/>
</g>
<g>
<path d="M 756.0 156.0 A 100.0 100.0 0 0 0 659.6271899647159 282.688602172145 L 756.0 256.0 Z"
	fill="Blue " stroke="black" transform="rotate(0.0)"/>
<path d="M 659.6271899647159 282.688602172145 A 100.0 100.0 0 0 0 807.4411117448681 341.75437028193954 L 756.0 256.0 Z"
	fill=" Green " stroke="black" transform="rotate(0.0)"/>
<path d="M 807.4411117448681 341.75437028193954 A 100.0 100.0 0 0 0 824.9149827022516 183.53811236830512 L 756.0 256.0 Z"
	fill=" Red " stroke="black" transform="rotate(0.0)"/>
<path d="M 824.9149827022513 183.538112368305 A 100.0 100.0 0 0 0 762.0714209020394 156.1844809249069 L 756.0 256.0 Z"
	fill=" Yellow " stroke="black" transform="rotate(0.0)"/>
<path d="M 762.0714209020394 156.1844809249069 A 100.0 100.0 0 0 0 756.0 156.0 L 756.0 256.0 Z"
	fill=" Maroon " stroke="black" transform="rotate(0.0)"/>
</g>
<g>
<path d="M 256.0 156.0 A 100.0 100.0 0 0 0 213.47506931709432 165.4923745178669 L 256.0 256.0 Z"
	fill="Blue " stroke="black" transform="rotate(0.0)"/>
<path d="M 213.47506931709432 165.4923745178669 A 100.0 100.0 0 0 0 157.3620583253924 272.44860061515004 L 256.0 256.0 Z"
	fill=" Green " stroke="black" transform="rotate(0.0)"/>
<path d="M 157.3620583253924 272.44860061515004 A 100.0 100.0 0 1 0 329.39319474078343 188.07769905442365 L 256.0 256.0 Z"
	fill=" Red " stroke="black" transform="rotate(0.0)"/>
<path d="M 329.39319474078343 188.07769905442365 A 100.0 100.0 0 0 0 263.10546879667066 156.25275786679845 L 256.0 256.0 Z"
	fill=" Yellow " stroke="black" transform="rotate(0.0)"/>
<path d="M 263.10546879667066 156.25275786679845 A 100.0 100.0 0 0 0 256.00000000000006 156.0 L 256.0 256.0 Z"
	fill=" Maroon " stroke="black" transform="rotate(0.0)"/>
</g>
<g>
<path d="M 506.0 156.0 A 100.0 100.0 0 0 0 463.4750693170943 165.4923745178669 L 506.0 256.0 Z"
	fill="Blue " stroke="black" transform="rotate(0.0)"/>
<path d="M 463.4750693170943 165.4923745178669 A 100.0 100.0 0 0 0 407.3620583253924 272.44860061515004 L 506.0 256.0 Z"
	fill=" Green " stroke="black" transform="rotate(0.0)"/>
<path d="M 407.3620583253924 272.44860061515004 A 100.0 100.0 0 1 0 579.3931947407834 188.07769905442365 L 506.0 256.0 Z"
	fill=" Red " stroke="black" transform="rotate(0.0)"/>
<path d="M 579.3931947407834 188.07769905442365 A 100.0 100.0 0 0 0 513.1054687966707 156.25275786679845 L 506.0 256.0 Z"
	fill=" Yellow " stroke="black" transform="rotate(0.0)"/>
<path d="M 513.1054687966707 156.25275786679845 A 100.0 100.0 0 0 0 506.00000000000006 156.0 L 506.0 256.0 Z"
	fill=" Maroon " stroke="black" transform="rotate(0.0)"/>
</g>
<g>
<path d="M 756.0 156.0 A 100.0 100.0 0 0 0 713.4750693170944 165.4923745178669 L 756.0 256.0 Z"
	fill="Blue " stroke="black" transform="rotate(0.0)"/>
<path d="M 713.4750693170944 165.4923745178669 A 100.0 100.0 0 0 0 657.3620583253925 272.44860061515004 L 756.0 256.0 Z"
	fill=" Green " stroke="black" transform="rotate(0.0)"/>
<path d="M 657.3620583253925 272.44860061515004 A 100.0 100.0 0 1 0 829.3931947407834 188.07769905442365 L 756.0 256.0 Z"
	fill=" Red " stroke="black" transform="rotate(0.0)"/>
<path d="M 829.3931947407834 188.07769905442365 A 100.0 100.0 0 0 0 763.1054687966707 156.25275786679845 L 756.0 256.0 Z"
	fill=" Yellow " stroke="black" transform="rotate(0.0)"/>
<path d="M 763.1054687966707 156.25275786679845 A 100.0 100.0 0 0 0 756.0 156.0 L 756.0 256.0 Z"
	fill=" Maroon " stroke="black" transform="rotate(0.0)"/>
</g>
<rect x="231.0" y="408.5" height="15.0" width="50.0"
	fill="20200" stroke="black" transform="rotate(0)"/>
<rect x="231.0" y="408.5" height="15.0" width="50.0"
	fill="20200" stroke="black" transform="rotate(0)"/>
<rect x="481.0" y="408.5" height="15.0" width="50.0"
	fill="20201" stroke="black" transform="rotate(0)"/>
<rect x="231.0" y="408.5" height="15.0" width="50.0"
	fill="20200" stroke="black" transform="rotate(0)"/>
<rect x="481.0" y="408.5" height="15.0" width="50.0"
	fill="20201" stroke="black" transform="rotate(0)"/>
<rect x="731.0" y="408.5" height="15.0" width="50.0"
	fill="20202" stroke="black" transform="rotate(0)"/>
<rect x="231.0" y="408.5" height="15.0" width="50.0"
	fill="20200" stroke="black" transform="rotate(0)"/>
<rect x="481.0" y="408.5" height="15.0" width="50.0"
	fill="20201" stroke="black" transform="rotate(0)"/>
<rect x="731.0" y="408.5" height="15.0" width="50.0"
	fill="20202" stroke="black" transform="rotate(0)"/>
<rect x="981.0" y="408.5" height="15.0" width="50.0"
	fill="20203" stroke="black" transform="rotate(0)"/>
<rect x="231.0" y="408.5" height="15.0" width="50.0"
	fill="20200" stroke="black" transform="rotate(0)"/>
<rect x="481.0" y="408.5" height="15.0" width="50.0"
	fill="20201" stroke="black" transform="rotate(0)"/>
<rect x="731.0" y="408.5" height="15.0" width="50.0"
	fill="20202" stroke="black" transform="rotate(0)"/>
<rect x="981.0" y="408.5" height="15.0" width="50.0"
	fill="20203" stroke="black" transform="rotate(0)"/>
<rect x="1231.0" y="408.5" height="15.0" width="50.0"
	fill="20204" stroke="black" transform="rotate(0)"/>
</svg>